<?xml version="1.0" encoding="utf-8"?>
<!-- Generator: Adobe Illustrator 22.1.0, SVG Export Plug-In . SVG Version: 6.00 Build 0)  -->
<svg version="1.0" id="レイヤー_1" xmlns="http://www.w3.org/2000/svg" xmlns:xlink="http://www.w3.org/1999/xlink" x="0px"
	 y="0px" width="31.0164738px" height="30.5973072px" viewBox="0 0 31.0164738 30.5973072"
	 style="enable-background:new 0 0 31.0164738 30.5973072;" xml:space="preserve">
<style type="text/css">
	.st0{fill:#FFFFFF;}
</style>
<path class="st0" d="M24.8690777,15.368515c0,5.169426-4.1914139,9.3608398-9.3608408,9.3608398
	S6.1473975,20.537941,6.1473975,15.368515c0-0.5588465,0-1.2574158,0.1397223-1.8162622H0v12.294795
	c0,2.6545525,2.0957065,4.7502594,4.7502599,4.7502594h21.0967884c2.6545525,0,4.7502594-2.0957069,4.7502594-4.7502594v-12.294795
	h-6.2871189C24.8690777,14.1110992,24.8690777,14.6699457,24.8690777,15.368515z M26.1264915,0H5.0297041
	C2.3751512,0,0.2794446,2.0957065,0.2794446,4.7502599v5.1694264h7.8239794
	c1.6765823-2.3751512,4.4708576-3.9119687,7.5445356-3.9119687c3.07372,0,5.8679953,1.53686,7.5445356,3.9119687h7.8239784
	V4.7502599C30.8767509,2.0957065,28.7810459,0,26.1264915,0z M28.5016003,5.8679528
	c0,0.4191241-0.4191246,0.8382912-0.8382912,0.8382912h-2.5148296c-0.4191246,0-0.8382912-0.4191241-0.8382912-0.8382912V3.353122
	c0-0.4191244,0.4191227-0.8382912,0.8382912-0.8382912h2.5148296c0.4191246,0,0.8382912,0.4191244,0.8382912,0.8382912V5.8679528z
	 M21.2365093,15.368515c0-3.2133999-2.5148296-5.7282734-5.7282724-5.7282734c-3.2133999,0-5.7282734,2.5148306-5.7282734,5.7282734
	c0,3.2133999,2.5148315,5.7282734,5.7282734,5.7282734C18.7216358,20.9570656,21.2365093,18.4421921,21.2365093,15.368515z"/>
<g>
</g>
<g>
</g>
<g>
</g>
<g>
</g>
<g>
</g>
<g>
</g>
</svg>
